# Blender 4.3.2
# www.blender.org
mtllib exit8.mtl
o Cube
v 1.000000 0.000000 -10.000000
v 1.000000 -1.000000 -10.000000
v 1.000000 0.000000 11.000000
v 1.000000 -1.000000 11.000000
v -1.000000 0.000000 -10.000000
v -1.000000 -1.000000 -10.000000
v -1.000000 0.000000 11.000000
v -1.000000 -1.000000 11.000000
v 1.000000 -1.000000 -12.000000
v -1.000000 -1.000000 -12.000000
v 1.000000 0.000000 -12.000000
v -1.000000 0.000000 -12.000000
v -3.000000 0.000000 -10.000000
v -3.000000 -1.000000 -10.000000
v -3.000000 0.000000 -12.000000
v -3.000000 -1.000000 -12.000000
v -5.000000 0.000000 -10.000000
v -5.000000 -1.000000 -10.000000
v -5.000000 0.000000 -12.000000
v -5.000000 -1.000000 -12.000000
v -3.000000 0.000000 -9.000000
v -3.000000 -1.000000 -9.000000
v -5.000000 0.000000 -9.000000
v -5.000000 -1.000000 -9.000000
v -3.000000 0.000000 -7.000000
v -3.000000 -1.000000 -7.000000
v -5.000000 0.000000 -7.000000
v -5.000000 -1.000000 -7.000000
v -1.000000 -1.000000 13.000000
v -1.000000 0.000000 13.000000
v 1.000000 0.000000 13.000000
v 1.000000 -1.000000 13.000000
v -3.000000 -1.000000 11.000000
v -3.000000 0.000000 11.000000
v -3.000000 -1.000000 13.000000
v -3.000000 0.000000 13.000000
v -1.615907 -1.000000 -9.384092
v -1.615907 -1.000000 10.384092
v 1.615907 0.123779 -10.000000
v 1.615907 -1.000000 -10.000000
v -1.615907 0.123779 10.384092
v 1.615907 0.123779 11.000000
v 1.615907 -1.000000 11.000000
v -1.615907 0.123779 -9.384092
v 1.615907 -1.000000 -12.615908
v -1.000000 -1.000000 -12.615908
v 1.615907 0.123779 -12.615908
v -1.000000 0.123779 -12.615908
v -2.384093 0.123779 -9.384092
v -2.384093 -1.000000 -9.384092
v -3.000000 0.123779 -12.615908
v -3.000000 -1.000000 -12.615908
v -5.615907 0.123779 -10.000000
v -5.615907 -1.000000 -10.000000
v -5.615907 0.123779 -12.615908
v -5.615907 -1.000000 -12.615908
v -2.384093 0.123779 -9.000000
v -2.384093 -1.000000 -9.000000
v -5.615907 0.123779 -9.000000
v -5.615907 -1.000000 -9.000000
v -2.384093 0.123779 -6.384093
v -2.384093 -1.000000 -6.384093
v -5.615907 0.123779 -6.384093
v -5.615907 -1.000000 -6.384093
v -1.000000 -1.000000 13.615908
v -1.000000 0.123779 13.615908
v 1.615907 0.123779 13.615908
v 1.615907 -1.000000 13.615908
v -3.615907 -1.000000 10.384092
v -3.615907 0.123779 10.384092
v -3.615907 -1.000000 13.615908
v -3.615907 0.123779 13.615908
v -2.384093 3.000000 -9.000000
v -3.000000 3.000000 -9.000000
v -3.000000 3.000000 -7.000000
v -2.384093 3.000000 -6.384093
v -3.000000 3.000000 -12.615908
v -3.000000 3.000000 -12.000000
v 1.000000 3.000000 -10.000000
v 1.000000 3.000000 11.000000
v -1.000000 3.000000 11.000000
v -1.000000 3.000000 -10.000000
v -1.000000 3.000000 -12.000000
v -1.000000 3.000000 -12.615908
v 1.000000 3.000000 -12.000000
v -5.615907 3.000000 -6.384093
v -5.000000 3.000000 -7.000000
v -5.000000 3.000000 -9.000000
v -5.615907 3.000000 -9.000000
v -3.000000 3.000000 -10.000000
v -5.000000 3.000000 -10.000000
v -5.000000 3.000000 -12.000000
v -1.615907 3.000000 10.384092
v -1.615907 3.000000 -9.384092
v -3.615907 3.000000 13.615908
v -3.000000 3.000000 13.000000
v -3.000000 3.000000 11.000000
v -3.615907 3.000000 10.384092
v 1.000000 3.000000 13.000000
v -1.000000 3.000000 13.000000
v 1.615907 3.000000 -10.000000
v 1.615907 3.000000 11.000000
v 1.615907 3.000000 -12.615908
v -2.384093 3.000000 -9.384092
v -5.615907 3.000000 -10.000000
v -5.615907 3.000000 -12.615908
v 1.615907 3.000000 13.615908
v -1.000000 3.000000 13.615908
v -2.384093 4.000000 -9.000000
v -3.000000 4.000000 -9.000000
v -3.000000 4.000000 -7.000000
v -2.384093 4.000000 -6.384093
v -3.000000 4.000000 -12.615908
v -3.000000 4.000000 -12.000000
v 1.000000 4.000000 -10.000000
v 1.000000 4.000000 11.000000
v -1.000000 4.000000 11.000000
v -1.000000 4.000000 -10.000000
v -1.000000 4.000000 -12.000000
v -1.000000 4.000000 -12.615908
v 1.000000 4.000000 -12.000000
v -5.615907 4.000000 -6.384093
v -5.000000 4.000000 -7.000000
v -5.000000 4.000000 -9.000000
v -5.615907 4.000000 -9.000000
v -3.000000 4.000000 -10.000000
v -5.000000 4.000000 -10.000000
v -5.000000 4.000000 -12.000000
v -1.615907 4.000000 10.384092
v -1.615907 4.000000 -9.384092
v -3.615907 4.000000 13.615908
v -3.000000 4.000000 13.000000
v -3.000000 4.000000 11.000000
v -3.615907 4.000000 10.384092
v 1.000000 4.000000 13.000000
v -1.000000 4.000000 13.000000
v 1.615907 4.000000 -10.000000
v 1.615907 4.000000 11.000000
v 1.615907 4.000000 -12.615908
v -2.384093 4.000000 -9.384092
v -5.615907 4.000000 -10.000000
v -5.615907 4.000000 -12.615908
v 1.615907 4.000000 13.615908
v -1.000000 4.000000 13.615908
vn -0.0000 1.0000 -0.0000
vn -0.0000 -1.0000 -0.0000
vn -0.0000 -0.0000 -1.0000
vn -0.0000 -0.0000 1.0000
vn 1.0000 -0.0000 -0.0000
vn -1.0000 -0.0000 -0.0000
vt 0.452893 0.564165
vt 0.501951 0.049058
vt 0.501951 0.564165
vt 0.452893 0.049058
vt 0.501951 0.000000
vt 0.064165 0.064165
vt 0.079273 0.564165
vt 0.064165 0.579273
vt 0.015108 0.579273
vt 0.318876 0.815141
vt 0.245289 0.766083
vt 0.318876 0.766083
vt 0.162281 0.554744
vt 0.177389 0.579273
vt 0.162281 0.579273
vt 0.098116 0.564165
vt 0.113223 0.579273
vt 0.452893 0.613223
vt 0.403835 0.564165
vt 0.015108 0.628331
vt 0.403835 0.613223
vt 0.354777 0.564165
vt 0.095080 0.707604
vt 0.024529 0.643438
vt 0.095080 0.643438
vt 0.064165 0.643438
vt 0.000000 0.643438
vt 0.113223 0.628331
vt 0.064165 0.628331
vt 0.318876 0.864199
vt 0.245289 0.815141
vt 0.113223 0.064165
vt 0.079273 0.079273
vt 0.162281 0.628331
vt 0.000000 0.064165
vt 0.015108 0.064165
vt 0.113223 0.554744
vt 0.162281 0.505686
vt 0.403835 0.539636
vt 0.486843 0.861163
vt 0.551009 0.790612
vt 0.551009 0.861163
vt 0.600067 0.708303
vt 0.649125 0.637752
vt 0.649125 0.708303
vt 0.113223 0.015108
vt 0.064165 0.000000
vt 0.128331 0.000000
vt 0.354777 0.539636
vt 0.403835 0.490579
vt 0.807670 0.741554
vt 0.856728 0.667967
vt 0.856728 0.741554
vt 0.128331 0.079273
vt 0.572502 0.766083
vt 0.501951 0.701918
vt 0.572502 0.701918
vt 0.064165 0.015108
vt 0.177389 0.554744
vt 0.449857 0.677389
vt 0.379306 0.613223
vt 0.449857 0.613223
vt 0.403835 0.000000
vt 0.452893 0.000000
vt 0.113223 0.643438
vt 0.964965 0.484892
vt 0.992530 0.000000
vt 0.992530 0.484892
vt 0.744204 0.579273
vt 0.771769 0.064165
vt 0.771769 0.579273
vt 0.744204 0.643438
vt 0.477422 0.613223
vt 0.477422 0.677389
vt 0.318876 0.738518
vt 0.337719 0.766083
vt 0.318876 0.766083
vt 0.449857 0.726447
vt 0.572502 0.677389
vt 0.600067 0.613223
vt 0.600067 0.677389
vt 0.477422 0.726447
vt 0.449857 0.790612
vt 0.477422 0.861163
vt 0.486843 0.888728
vt 0.477422 0.888728
vt 0.728398 0.738518
vt 0.807670 0.766083
vt 0.728398 0.766083
vt 0.600067 0.701918
vt 0.551009 0.888728
vt 0.095080 0.771769
vt 0.122645 0.707604
vt 0.122645 0.771769
vt 0.744204 0.064165
vt 0.771769 0.000000
vt 0.649125 0.738518
vt 0.649125 0.735868
vt 0.122645 0.643438
vt 0.807670 0.839670
vt 0.856728 0.766083
vt 0.856728 0.839670
vt 0.379306 0.726447
vt 0.015108 0.015108
vt 0.551009 0.864199
vt 0.600067 0.790612
vt 0.600067 0.864199
vt 0.220760 0.741554
vt 0.147174 0.692496
vt 0.220760 0.692496
vt 0.000000 0.579273
vt 0.098116 0.554744
vt 0.318876 0.692496
vt 0.245289 0.643438
vt 0.318876 0.643438
vt 0.501951 0.613223
vt 0.572502 0.613223
vt 0.968001 1.000000
vt 0.894414 0.484892
vt 0.968001 0.484892
vt 0.177389 0.643438
vt 0.000000 0.000000
vt 0.728398 0.667967
vt 0.624596 0.864199
vt 0.673653 0.790612
vt 0.673653 0.864199
vt 0.113223 0.505686
vt 0.177389 0.490579
vt 0.807670 0.667967
vt 0.807670 0.738518
vt 0.098116 0.490579
vt 0.501951 0.677389
vt 0.796298 0.049058
vt 0.771769 -0.000000
vt 0.796298 -0.000000
vt 0.600067 0.766083
vt 0.318876 0.667967
vt 0.337719 0.643438
vt 0.337719 0.667967
vt 0.147174 0.790612
vt 0.122645 0.741554
vt 0.147174 0.741554
vt 0.245289 0.692496
vt 0.220760 0.643438
vt 0.354777 0.677389
vt 0.379306 0.677389
vt 0.024529 0.707604
vt 0.000000 0.643438
vt 0.673654 0.790612
vt 0.722711 0.766083
vt 0.722711 0.790612
vt 0.673654 0.643438
vt 0.649125 0.579273
vt 0.673654 0.579273
vt 0.894414 1.000000
vt 0.869885 0.484892
vt 0.600067 0.637752
vt 0.649125 0.613223
vt 0.624596 0.766083
vt 0.624596 0.790612
vt 0.354777 0.613223
vt 0.796298 0.564165
vt 0.771769 0.049058
vt 0.649125 0.667967
vt 0.728398 0.643438
vt 0.245289 0.717025
vt 0.220760 0.692496
vt 0.894414 0.484892
vt 0.869885 -0.000000
vt 0.894414 -0.000000
vt 0.318876 0.717025
vt 0.220760 0.790612
vt 0.318876 0.766083
vt 0.869885 0.613223
vt 0.869885 0.564165
vt 0.869885 0.049058
vt 0.486843 0.790612
vt 0.337719 0.738518
vt 0.673654 0.000000
vt 0.744204 0.000000
vt 0.147174 0.643438
vt 0.220760 0.643438
vt 0.673654 0.864199
vt 0.722711 0.864199
vt 0.673654 0.064165
vt 0.964965 0.000000
vt 0.241554 0.015108
vt 0.290612 0.000000
vt 0.290612 0.015108
vt 0.241554 0.064165
vt 0.275504 0.079273
vt 0.226447 0.079273
vt 0.241554 0.579273
vt 0.275504 0.564165
vt 0.290612 0.579273
vt 0.241554 0.505686
vt 0.256662 0.554744
vt 0.241554 0.554744
vt 0.290612 0.628331
vt 0.241554 0.643438
vt 0.241554 0.628331
vt 0.192496 0.505686
vt 0.177389 0.554744
vt 0.177389 0.490579
vt 0.290612 0.064165
vt 0.226447 0.000000
vt 0.339670 0.015108
vt 0.354777 0.000000
vt 0.192496 0.579273
vt 0.192496 0.554744
vt 0.339670 0.628331
vt 0.290612 0.643438
vt 0.256662 0.564165
vt 0.192496 0.628331
vt 0.177389 0.579273
vt 0.354777 0.064165
vt 0.339670 0.064165
vt 0.354777 0.579273
vt 0.354777 0.643438
vt 0.177389 0.643438
vt 0.256662 0.490579
vt 0.339670 0.579273
vt 0.379306 0.790612
vt 0.354777 0.726447
vt 0.220760 0.766083
vt 0.122645 0.692496
vt 0.477422 0.790612
vt 0.486843 0.766083
vt 0.796298 0.613223
vt 0.771769 0.564165
vt 0.807670 0.643438
vt 0.673653 0.766083
vt 0.220760 0.717025
vt 0.501951 0.766083
vt 0.477422 0.701918
vt 0.856728 0.643438
vt 0.122645 0.643438
vt 0.551009 0.766083
vt 0.245289 0.864199
vt 0.220760 0.815141
vt 0.024529 0.771769
vt 0.000000 0.707604
vt 0.649125 0.064165
vt 0.649125 0.000000
vt 0.600067 0.564165
vt 0.649125 0.539636
vt 0.354777 0.490579
vt 0.403835 0.049058
vt 0.771769 0.643438
vt 0.477422 0.790612
vt 0.649125 0.766083
vt 0.600067 0.735868
vt 0.318876 0.643438
vt 0.122645 0.790612
vt 0.673654 0.766083
vt 0.649125 0.643438
vt 0.869885 1.000000
vt 0.600067 0.613223
vt 0.869885 0.484892
vt 0.354777 0.790612
vt 0.477422 0.766083
vt 0.771769 0.613223
vt 0.477422 0.766083
vt 0.220760 0.864199
vt 0.000000 0.771769
vt 0.551009 0.000000
vt 0.600067 0.000000
vt 0.600067 0.049058
vt 0.551009 0.049058
vt 0.551009 0.613223
vt 0.649125 0.564165
vt 0.551009 0.564165
vt 0.600067 0.490579
vt 0.649125 0.490579
vt 0.600067 0.539636
s 0
usemtl Material
f 5/1/1 3/2/1 1/3/1
f 7/4/1 31/5/1 3/2/1
f 8/6/2 37/7/2 6/8/2
f 2/9/2 8/6/2 6/8/2
f 30/10/3 99/11/3 31/12/3
f 24/13/2 54/14/2 18/15/2
f 6/8/2 50/16/2 14/17/2
f 12/18/1 13/19/1 5/1/1
f 6/8/2 9/20/2 2/9/2
f 1/3/1 12/18/1 5/1/1
f 15/21/1 17/22/1 13/19/1
f 66/23/4 95/24/4 72/25/4
f 9/20/2 46/26/2 45/27/2
f 6/8/2 16/28/2 10/29/2
f 36/30/3 100/31/3 30/10/3
f 33/32/2 38/33/2 8/6/2
f 14/17/2 20/34/2 16/28/2
f 2/9/2 43/35/2 4/36/2
f 22/37/2 28/38/2 24/13/2
f 17/22/1 21/39/1 13/19/1
f 57/40/5 76/41/5 61/42/5
f 14/17/2 24/13/2 18/15/2
f 70/43/3 93/44/3 41/45/3
f 35/46/2 65/47/2 71/48/2
f 23/49/1 25/50/1 21/39/1
f 7/51/4 97/52/4 34/53/4
f 35/46/2 69/54/2 33/32/2
f 63/55/6 89/56/6 59/57/6
f 29/58/2 33/32/2 8/6/2
f 4/36/2 29/58/2 8/6/2
f 28/38/2 60/59/2 24/13/2
f 48/60/3 103/61/3 47/62/3
f 7/4/1 36/63/1 30/64/1
f 20/34/2 52/65/2 16/28/2
f 41/66/6 37/67/6 38/68/6
f 39/69/5 43/70/5 40/71/5
f 40/71/5 47/72/5 39/69/5
f 48/60/3 45/73/3 46/74/3
f 44/75/4 50/76/4 37/77/4
f 46/74/3 51/78/3 48/60/3
f 53/79/6 56/80/6 54/81/6
f 54/81/6 59/57/6 53/79/6
f 52/82/3 55/83/3 51/78/3
f 49/84/5 58/85/5 50/86/5
f 61/87/4 64/88/4 62/89/4
f 60/90/6 63/55/6 59/57/6
f 57/40/5 62/91/5 58/85/5
f 67/92/4 65/93/4 68/94/4
f 42/95/5 68/96/5 43/70/5
f 69/89/6 72/97/6 70/87/6
f 38/98/3 70/43/3 41/45/3
f 66/23/4 71/99/4 65/93/4
f 16/28/2 46/26/2 10/29/2
f 13/100/3 82/101/3 5/102/3
f 55/83/3 77/103/3 51/78/3
f 32/104/2 65/47/2 29/58/2
f 25/105/6 74/106/6 21/107/6
f 12/108/4 78/109/4 15/110/4
f 9/20/2 40/111/2 2/9/2
f 22/37/2 50/16/2 58/112/2
f 23/113/5 87/114/5 27/115/5
f 53/79/6 106/116/6 55/117/6
f 5/118/5 81/119/5 7/120/5
f 20/34/2 54/14/2 56/121/2
f 32/104/2 43/35/2 68/122/2
f 72/97/6 98/123/6 70/87/6
f 34/124/5 96/125/5 36/126/5
f 26/127/2 64/128/2 28/38/2
f 61/87/4 86/129/4 63/130/4
f 26/127/2 58/112/2 62/131/2
f 105/132/6 142/73/6 106/116/6
f 79/133/6 121/134/6 85/135/6
f 75/41/6 110/136/6 74/106/6
f 94/137/4 140/138/4 104/139/4
f 85/140/4 119/141/4 83/142/4
f 88/143/5 123/144/5 87/114/5
f 77/103/3 120/145/3 84/146/3
f 108/147/4 131/148/4 95/24/4
f 87/149/3 111/150/3 75/151/3
f 103/152/5 137/153/5 101/154/5
f 82/155/5 117/156/5 81/119/5
f 98/157/3 129/158/3 93/44/3
f 74/106/6 126/159/6 90/160/6
f 84/146/3 139/161/3 103/61/3
f 80/162/6 115/163/6 79/133/6
f 95/164/6 134/165/6 98/123/6
f 91/166/5 124/167/5 88/143/5
f 93/168/6 130/169/6 94/170/6
f 47/72/5 101/154/5 39/69/5
f 17/171/5 88/143/5 23/113/5
f 11/172/4 83/142/4 12/108/4
f 21/107/6 90/160/6 13/124/6
f 67/92/4 108/147/4 66/23/4
f 59/57/6 105/132/6 53/79/6
f 19/173/5 91/166/5 17/171/5
f 31/174/6 80/162/6 3/175/6
f 51/78/3 84/146/3 48/60/3
f 1/176/6 85/135/6 11/169/6
f 49/84/5 73/177/5 57/40/5
f 44/75/4 104/139/4 49/178/4
f 42/95/5 107/179/5 67/180/5
f 15/110/4 92/181/4 19/182/4
f 27/183/3 75/151/3 25/184/3
f 39/69/5 102/185/5 42/95/5
f 41/66/6 94/170/6 44/186/6
f 3/175/6 79/133/6 1/176/6
f 132/187/1 144/188/1 136/189/1
f 133/190/1 129/191/1 134/192/1
f 126/193/1 130/194/1 118/195/1
f 111/196/1 109/197/1 110/198/1
f 119/199/1 113/200/1 114/201/1
f 123/202/1 125/203/1 122/204/1
f 118/195/1 129/191/1 117/205/1
f 133/190/1 131/206/1 132/187/1
f 135/207/1 144/188/1 143/208/1
f 127/209/1 125/203/1 124/210/1
f 121/211/1 120/212/1 119/199/1
f 110/198/1 140/213/1 126/193/1
f 128/214/1 141/215/1 127/209/1
f 135/207/1 138/216/1 116/217/1
f 121/211/1 137/218/1 139/219/1
f 128/214/1 113/200/1 142/220/1
f 123/202/1 112/221/1 111/196/1
f 116/217/1 137/218/1 115/222/1
f 106/223/3 113/224/3 77/103/3
f 89/56/6 141/74/6 105/132/6
f 100/31/3 135/225/3 99/11/3
f 83/142/4 114/226/4 78/109/4
f 104/227/5 109/228/5 73/177/5
f 99/229/6 116/230/6 80/162/6
f 90/88/3 118/53/3 82/101/3
f 76/123/4 122/231/4 86/129/4
f 97/160/5 132/232/5 96/125/5
f 92/11/5 127/233/5 91/166/5
f 86/234/6 125/235/6 89/56/6
f 81/129/4 133/236/4 97/52/4
f 78/109/4 128/237/4 92/181/4
f 73/177/5 112/238/5 76/41/5
f 96/239/3 136/240/3 100/31/3
f 107/241/4 144/242/4 108/147/4
f 101/154/5 138/243/5 102/185/5
f 102/185/5 143/244/5 107/179/5
f 90/245/2 88/246/2 78/80/2
f 114/201/1 118/195/1 115/222/1
f 5/1/1 7/4/1 3/2/1
f 7/4/1 30/64/1 31/5/1
f 8/6/2 38/33/2 37/7/2
f 2/9/2 4/36/2 8/6/2
f 30/10/3 100/31/3 99/11/3
f 24/13/2 60/59/2 54/14/2
f 6/8/2 37/7/2 50/16/2
f 12/18/1 15/21/1 13/19/1
f 6/8/2 10/29/2 9/20/2
f 1/3/1 11/116/1 12/18/1
f 15/21/1 19/161/1 17/22/1
f 66/23/4 108/147/4 95/24/4
f 9/20/2 10/29/2 46/26/2
f 6/8/2 14/17/2 16/28/2
f 36/30/3 96/239/3 100/31/3
f 33/32/2 69/54/2 38/33/2
f 14/17/2 18/15/2 20/34/2
f 2/9/2 40/111/2 43/35/2
f 22/37/2 26/127/2 28/38/2
f 17/22/1 23/49/1 21/39/1
f 57/40/5 73/177/5 76/41/5
f 14/17/2 22/37/2 24/13/2
f 70/43/3 98/157/3 93/44/3
f 35/46/2 29/58/2 65/47/2
f 23/49/1 27/247/1 25/50/1
f 7/51/4 81/129/4 97/52/4
f 35/46/2 71/48/2 69/54/2
f 63/55/6 86/234/6 89/56/6
f 29/58/2 35/46/2 33/32/2
f 4/36/2 32/104/2 29/58/2
f 28/38/2 64/128/2 60/59/2
f 48/60/3 84/146/3 103/61/3
f 7/4/1 34/248/1 36/63/1
f 20/34/2 56/121/2 52/65/2
f 41/66/6 44/186/6 37/67/6
f 39/69/5 42/95/5 43/70/5
f 40/71/5 45/249/5 47/72/5
f 48/60/3 47/62/3 45/73/3
f 44/75/4 49/178/4 50/76/4
f 46/74/3 52/82/3 51/78/3
f 53/79/6 55/117/6 56/80/6
f 54/81/6 60/90/6 59/57/6
f 52/82/3 56/250/3 55/83/3
f 49/84/5 57/40/5 58/85/5
f 61/87/4 63/130/4 64/88/4
f 60/90/6 64/136/6 63/55/6
f 57/40/5 61/42/5 62/91/5
f 67/92/4 66/23/4 65/93/4
f 42/95/5 67/180/5 68/96/5
f 69/89/6 71/251/6 72/97/6
f 38/98/3 69/252/3 70/43/3
f 66/23/4 72/25/4 71/99/4
f 16/28/2 52/65/2 46/26/2
f 13/100/3 90/88/3 82/101/3
f 55/83/3 106/223/3 77/103/3
f 32/104/2 68/122/2 65/47/2
f 25/105/6 75/41/6 74/106/6
f 12/108/4 83/142/4 78/109/4
f 9/20/2 45/27/2 40/111/2
f 22/37/2 14/17/2 50/16/2
f 23/113/5 88/143/5 87/114/5
f 53/79/6 105/132/6 106/116/6
f 5/118/5 82/155/5 81/119/5
f 20/34/2 18/15/2 54/14/2
f 32/104/2 4/36/2 43/35/2
f 72/97/6 95/164/6 98/123/6
f 34/124/5 97/160/5 96/125/5
f 26/127/2 62/131/2 64/128/2
f 61/87/4 76/123/4 86/129/4
f 26/127/2 22/37/2 58/112/2
f 105/132/6 141/74/6 142/73/6
f 79/133/6 115/163/6 121/134/6
f 75/41/6 111/238/6 110/136/6
f 94/137/4 130/253/4 140/138/4
f 85/140/4 121/254/4 119/141/4
f 88/143/5 124/167/5 123/144/5
f 77/103/3 113/224/3 120/145/3
f 108/147/4 144/242/4 131/148/4
f 87/149/3 123/255/3 111/150/3
f 103/152/5 139/256/5 137/153/5
f 82/155/5 118/257/5 117/156/5
f 98/157/3 134/258/3 129/158/3
f 74/106/6 110/136/6 126/159/6
f 84/146/3 120/145/3 139/161/3
f 80/162/6 116/230/6 115/163/6
f 95/164/6 131/256/6 134/165/6
f 91/166/5 127/233/5 124/167/5
f 93/168/6 129/259/6 130/169/6
f 47/72/5 103/152/5 101/154/5
f 17/171/5 91/166/5 88/143/5
f 11/172/4 85/140/4 83/142/4
f 21/107/6 74/106/6 90/160/6
f 67/92/4 107/241/4 108/147/4
f 59/57/6 89/56/6 105/132/6
f 19/173/5 92/11/5 91/166/5
f 31/174/6 99/229/6 80/162/6
f 51/78/3 77/103/3 84/146/3
f 1/176/6 79/133/6 85/135/6
f 49/84/5 104/227/5 73/177/5
f 44/75/4 94/137/4 104/139/4
f 42/95/5 102/185/5 107/179/5
f 15/110/4 78/109/4 92/181/4
f 27/183/3 87/149/3 75/151/3
f 39/69/5 101/154/5 102/185/5
f 41/66/6 93/168/6 94/170/6
f 3/175/6 80/162/6 79/133/6
f 132/187/1 131/206/1 144/188/1
f 133/190/1 117/205/1 129/191/1
f 126/193/1 140/213/1 130/194/1
f 111/196/1 112/221/1 109/197/1
f 119/199/1 120/212/1 113/200/1
f 123/202/1 124/210/1 125/203/1
f 118/195/1 130/194/1 129/191/1
f 133/190/1 134/192/1 131/206/1
f 135/207/1 136/189/1 144/188/1
f 127/209/1 141/215/1 125/203/1
f 121/211/1 139/219/1 120/212/1
f 110/198/1 109/197/1 140/213/1
f 128/214/1 142/220/1 141/215/1
f 135/207/1 143/208/1 138/216/1
f 121/211/1 115/222/1 137/218/1
f 128/214/1 114/201/1 113/200/1
f 123/202/1 122/204/1 112/221/1
f 116/217/1 138/216/1 137/218/1
f 106/223/3 142/260/3 113/224/3
f 89/56/6 125/235/6 141/74/6
f 100/31/3 136/240/3 135/225/3
f 83/142/4 119/141/4 114/226/4
f 104/227/5 140/261/5 109/228/5
f 99/229/6 135/262/6 116/230/6
f 90/88/3 126/51/3 118/53/3
f 76/123/4 112/165/4 122/231/4
f 97/160/5 133/159/5 132/232/5
f 92/11/5 128/225/5 127/233/5
f 86/234/6 122/263/6 125/235/6
f 81/129/4 117/231/4 133/236/4
f 78/109/4 114/226/4 128/237/4
f 73/177/5 109/228/5 112/238/5
f 96/239/3 132/264/3 136/240/3
f 107/241/4 143/265/4 144/242/4
f 101/154/5 137/153/5 138/243/5
f 102/185/5 138/243/5 143/244/5
f 80/2/2 99/5/2 100/266/2
f 100/266/2 96/267/2 97/268/2
f 100/266/2 97/268/2 81/269/2
f 79/3/2 80/2/2 100/266/2
f 83/270/2 85/116/2 79/3/2
f 91/271/2 92/158/2 78/80/2
f 78/80/2 83/270/2 79/3/2
f 79/3/2 100/266/2 81/269/2
f 79/3/2 81/269/2 82/272/2
f 88/246/2 91/271/2 78/80/2
f 75/273/2 87/274/2 88/246/2
f 74/275/2 75/273/2 88/246/2
f 78/80/2 79/3/2 82/272/2
f 90/245/2 74/275/2 88/246/2
f 78/80/2 82/272/2 90/245/2
f 115/222/1 121/211/1 119/199/1
f 114/201/1 128/214/1 127/209/1
f 115/222/1 119/199/1 114/201/1
f 136/189/1 135/207/1 116/217/1
f 114/201/1 127/209/1 124/210/1
f 124/210/1 123/202/1 111/196/1
f 124/210/1 111/196/1 110/198/1
f 136/189/1 116/217/1 115/222/1
f 133/190/1 132/187/1 136/189/1
f 117/205/1 133/190/1 136/189/1
f 124/210/1 110/198/1 126/193/1
f 114/201/1 124/210/1 126/193/1
f 117/205/1 136/189/1 115/222/1
f 114/201/1 126/193/1 118/195/1
f 118/195/1 117/205/1 115/222/1
